<svg xmlns="http://www.w3.org/2000/svg" width="478.125" height="478.125" viewBox="0 0 478.125 478.125"><path d="M239.062 0C107.1 0 0 107.1 0 239.062c0 131.963 107.1 239.062 239.062 239.062 131.963 0 239.062-107.1 239.062-239.062C478.125 107.1 371.025 0 239.062 0zM116.663 175.95l63.112-42.075 11.475 15.3-65.025 42.075-9.562-15.3zm122.399 187.425C172.125 363.375 153 306 153 306s28.688 19.125 86.062 19.125S325.125 306 325.125 306 306 363.375 239.062 363.375zM351.9 191.25l-63.113-42.075 11.476-15.3 63.112 42.075-11.475 15.3z"/></svg>