<svg xmlns="http://www.w3.org/2000/svg" width="478.125" height="478.125" viewBox="0 0 478.125 478.125"><path d="M239.062 0C107.1 0 0 107.1 0 239.062c0 131.963 107.1 239.062 239.062 239.062 131.963 0 239.062-107.1 239.062-239.062C478.125 107.1 371.025 0 239.062 0zm93.713 114.75l11.475 15.3-65.025 42.075-11.475-15.3 65.025-42.075zm-187.425 0l63.112 42.075-9.562 15.3-63.112-42.075 9.562-15.3zm-11.475 76.5c0-11.475 7.65-19.125 19.125-19.125s19.125 7.65 19.125 19.125-7.65 19.125-19.125 19.125-19.125-7.65-19.125-19.125zm191.25 153H153v-19.125h172.125v19.125zm0-133.875c-11.475 0-19.125-7.65-19.125-19.125s7.65-19.125 19.125-19.125 19.125 7.65 19.125 19.125-7.65 19.125-19.125 19.125z"/></svg>