<svg xmlns="http://www.w3.org/2000/svg" width="478.125" height="478.125" viewBox="0 0 478.125 478.125"><path d="M239.062 0C107.1 0 0 107.1 0 239.062c0 131.963 107.1 239.062 239.062 239.062 131.963 0 239.062-107.1 239.062-239.062C478.125 107.1 371.025 0 239.062 0zm-49.725 175.95l-9.562 15.3L153 174.038l-26.775 17.212-11.475-15.3 19.125-13.388-19.125-13.388 11.475-15.3L153 151.087l26.775-17.212 11.475 15.3-19.125 13.388 17.212 13.387zm49.725 206.55c-26.775 0-47.812-21.037-47.812-47.812s21.038-47.812 47.812-47.812c26.775 0 47.812 21.037 47.812 47.812S265.838 382.5 239.062 382.5zm122.401-206.55l-9.562 15.3-26.775-17.212-26.776 17.212-11.475-15.3L306 162.562l-19.125-13.388 11.475-15.3 26.775 17.212 26.775-17.212 11.475 15.3-19.125 13.388 17.213 13.388z"/></svg>