<?xml version="1.0" encoding="iso-8859-1"?>
<!-- Generator: Adobe Illustrator 16.0.0, SVG Export Plug-In . SVG Version: 6.00 Build 0)  -->
<!DOCTYPE svg PUBLIC "-//W3C//DTD SVG 1.1//EN" "http://www.w3.org/Graphics/SVG/1.1/DTD/svg11.dtd">
<svg version="1.1" id="Capa_1" xmlns="http://www.w3.org/2000/svg" xmlns:xlink="http://www.w3.org/1999/xlink" x="0px" y="0px"
	 width="478.125px" height="478.125px" viewBox="0 0 478.125 478.125" style="enable-background:new 0 0 478.125 478.125;"
	 xml:space="preserve">
<g>
	<path d="M239.062,0C107.1,0,0,107.1,0,239.062c0,131.963,107.1,239.062,239.062,239.062c131.963,0,239.062-107.1,239.062-239.062
		C478.125,107.1,371.025,0,239.062,0z M189.337,175.95l-9.562,15.3L153,174.038l-26.775,17.212l-11.475-15.3l19.125-13.388
		l-19.125-13.388l11.475-15.3L153,151.087l26.775-17.212l11.475,15.3l-19.125,13.388L189.337,175.95z M239.062,382.5
		c-26.775,0-47.812-21.037-47.812-47.812s21.038-47.812,47.812-47.812c26.775,0,47.812,21.037,47.812,47.812
		S265.838,382.5,239.062,382.5z M361.463,175.95l-9.562,15.3l-26.775-17.212L298.35,191.25l-11.475-15.3L306,162.562l-19.125-13.388
		l11.475-15.3l26.775,17.212l26.775-17.212l11.475,15.3l-19.125,13.388L361.463,175.95z"/>
</g>
<g>
</g>
<g>
</g>
<g>
</g>
<g>
</g>
<g>
</g>
<g>
</g>
<g>
</g>
<g>
</g>
<g>
</g>
<g>
</g>
<g>
</g>
<g>
</g>
<g>
</g>
<g>
</g>
<g>
</g>
</svg>
