<svg xmlns="http://www.w3.org/2000/svg" width="478.125" height="478.125" viewBox="0 0 478.125 478.125"><path d="M239.062 0C107.1 0 0 107.1 0 239.062c0 131.963 107.1 239.062 239.062 239.062 131.963 0 239.062-107.1 239.062-239.062C478.125 107.1 371.025 0 239.062 0zm-59.287 191.25l-63.112-42.075 11.475-15.3 63.112 42.075-11.475 15.3zm59.287 191.25c-26.775 0-47.812-21.037-47.812-47.812s21.038-47.812 47.812-47.812c26.775 0 47.812 21.037 47.812 47.812S265.838 382.5 239.062 382.5zm59.288-191.25l-11.475-15.3 63.112-42.075 11.476 15.3-63.113 42.075z"/></svg>