<svg xmlns="http://www.w3.org/2000/svg" width="478.125" height="478.125" viewBox="0 0 478.125 478.125"><path d="M239.062 0C107.1 0 0 107.1 0 239.062c0 131.963 107.1 239.062 239.062 239.062 131.963 0 239.062-107.1 239.062-239.062C478.125 107.1 371.025 0 239.062 0zM114.75 114.75h76.5v19.125h-76.5V114.75zM153 210.375c-11.475 0-19.125-7.65-19.125-19.125s7.65-19.125 19.125-19.125 19.125 7.65 19.125 19.125-7.65 19.125-19.125 19.125zM239.062 382.5c-26.775 0-47.812-21.037-47.812-47.812s21.038-47.812 47.812-47.812c26.775 0 47.812 21.037 47.812 47.812S265.838 382.5 239.062 382.5zm86.063-172.125c-11.475 0-19.125-7.65-19.125-19.125s7.65-19.125 19.125-19.125 19.125 7.65 19.125 19.125-7.65 19.125-19.125 19.125zm38.25-76.5h-76.5V114.75h76.5v19.125z"/></svg>