<?xml version="1.0" encoding="iso-8859-1"?>
<!-- Generator: Adobe Illustrator 16.0.0, SVG Export Plug-In . SVG Version: 6.00 Build 0)  -->
<!DOCTYPE svg PUBLIC "-//W3C//DTD SVG 1.1//EN" "http://www.w3.org/Graphics/SVG/1.1/DTD/svg11.dtd">
<svg version="1.1" id="Capa_1" xmlns="http://www.w3.org/2000/svg" xmlns:xlink="http://www.w3.org/1999/xlink" x="0px" y="0px"
	 width="478.125px" height="478.125px" viewBox="0 0 478.125 478.125" style="enable-background:new 0 0 478.125 478.125;"
	 xml:space="preserve">
<g>
	<path d="M239.062,0C107.1,0,0,107.1,0,239.062c0,131.963,107.1,239.062,239.062,239.062c131.963,0,239.062-107.1,239.062-239.062
		C478.125,107.1,371.025,0,239.062,0z M172.125,363.375h-9.562c-13.388,0-22.95-7.65-26.775-19.125h36.337V363.375z
		 M172.125,325.125h-36.337c3.825-11.475,15.3-19.125,26.775-19.125h9.562V325.125z M153,191.25
		c-11.475,0-19.125-7.65-19.125-19.125S141.525,153,153,153s19.125,7.65,19.125,19.125S164.475,191.25,153,191.25z M229.5,363.375
		h-38.25V344.25h38.25V363.375z M229.5,325.125h-38.25V306h38.25V325.125z M306,306h9.562c13.388,0,22.95,7.65,26.775,19.125H306
		V306z M286.875,363.375h-38.25V344.25h38.25V363.375z M286.875,325.125h-38.25V306h38.25V325.125z M315.562,363.375H306V344.25
		h36.338C338.513,355.725,328.95,363.375,315.562,363.375z M325.125,191.25c-11.475,0-19.125-7.65-19.125-19.125
		S313.65,153,325.125,153s19.125,7.65,19.125,19.125S336.6,191.25,325.125,191.25z"/>
</g>
<g>
</g>
<g>
</g>
<g>
</g>
<g>
</g>
<g>
</g>
<g>
</g>
<g>
</g>
<g>
</g>
<g>
</g>
<g>
</g>
<g>
</g>
<g>
</g>
<g>
</g>
<g>
</g>
<g>
</g>
</svg>
