<?xml version="1.0" encoding="iso-8859-1"?>
<!-- Generator: Adobe Illustrator 16.0.0, SVG Export Plug-In . SVG Version: 6.00 Build 0)  -->
<!DOCTYPE svg PUBLIC "-//W3C//DTD SVG 1.1//EN" "http://www.w3.org/Graphics/SVG/1.1/DTD/svg11.dtd">
<svg version="1.1" id="Capa_1" xmlns="http://www.w3.org/2000/svg" xmlns:xlink="http://www.w3.org/1999/xlink" x="0px" y="0px"
	 width="478.125px" height="478.125px" viewBox="0 0 478.125 478.125" style="enable-background:new 0 0 478.125 478.125;"
	 xml:space="preserve">
<g>
	<g>
		<path d="M153,114.75c24.862,0,45.9,15.3,53.55,38.25h63.112c7.65-22.95,28.688-38.25,53.551-38.25
			c24.862,0,45.899,15.3,53.55,36.337l63.112-38.25C399.713,45.9,325.125,0,239.062,0S78.413,45.9,36.337,112.837l63.113,38.25
			C107.1,130.05,128.138,114.75,153,114.75z"/>
		<path d="M286.875,172.125c0,21.038,17.213,38.25,38.25,38.25s38.25-17.212,38.25-38.25s-17.213-38.25-38.25-38.25
			S286.875,151.087,286.875,172.125z M344.25,172.125c0,11.475-7.65,19.125-19.125,19.125S306,183.6,306,172.125
			S313.65,153,325.125,153S344.25,160.65,344.25,172.125z"/>
		<path d="M451.35,130.05l-68.85,42.075l0,0c0,32.513-24.862,57.375-57.375,57.375s-57.375-24.862-57.375-57.375h-57.375
			c0,32.513-24.862,57.375-57.375,57.375s-57.375-24.862-57.375-57.375l0,0l-68.85-42.075C9.562,162.562,0,198.9,0,239.062
			c0,131.963,107.1,239.062,239.062,239.062c131.963,0,239.062-107.1,239.062-239.062C478.125,198.9,468.562,162.562,451.35,130.05z
			 M239.062,382.5c-26.775,0-47.812-21.037-47.812-47.812s21.038-47.812,47.812-47.812c26.775,0,47.812,21.037,47.812,47.812
			S265.838,382.5,239.062,382.5z"/>
		<path d="M114.75,172.125c0,21.038,17.212,38.25,38.25,38.25s38.25-17.212,38.25-38.25s-17.212-38.25-38.25-38.25
			S114.75,151.087,114.75,172.125z M172.125,172.125c0,11.475-7.65,19.125-19.125,19.125s-19.125-7.65-19.125-19.125
			S141.525,153,153,153S172.125,160.65,172.125,172.125z"/>
	</g>
</g>
<g>
</g>
<g>
</g>
<g>
</g>
<g>
</g>
<g>
</g>
<g>
</g>
<g>
</g>
<g>
</g>
<g>
</g>
<g>
</g>
<g>
</g>
<g>
</g>
<g>
</g>
<g>
</g>
<g>
</g>
</svg>
