<svg xmlns="http://www.w3.org/2000/svg" width="478.125" height="478.125" viewBox="0 0 478.125 478.125"><path d="M153 114.75c24.862 0 45.9 15.3 53.55 38.25h63.112c7.65-22.95 28.688-38.25 53.551-38.25 24.862 0 45.899 15.3 53.55 36.337l63.112-38.25C399.713 45.9 325.125 0 239.062 0S78.413 45.9 36.337 112.837l63.113 38.25c7.65-21.037 28.688-36.337 53.55-36.337z"/><path d="M286.875 172.125c0 21.038 17.213 38.25 38.25 38.25s38.25-17.212 38.25-38.25-17.213-38.25-38.25-38.25-38.25 17.212-38.25 38.25zm57.375 0c0 11.475-7.65 19.125-19.125 19.125S306 183.6 306 172.125 313.65 153 325.125 153s19.125 7.65 19.125 19.125z"/><path d="M451.35 130.05l-68.85 42.075c0 32.513-24.862 57.375-57.375 57.375s-57.375-24.862-57.375-57.375h-57.375c0 32.513-24.862 57.375-57.375 57.375s-57.375-24.862-57.375-57.375l-68.85-42.075C9.562 162.562 0 198.9 0 239.062c0 131.963 107.1 239.062 239.062 239.062 131.963 0 239.062-107.1 239.062-239.062.001-40.162-9.562-76.5-26.774-109.012zM239.062 382.5c-26.775 0-47.812-21.037-47.812-47.812s21.038-47.812 47.812-47.812c26.775 0 47.812 21.037 47.812 47.812S265.838 382.5 239.062 382.5z"/><path d="M114.75 172.125c0 21.038 17.212 38.25 38.25 38.25s38.25-17.212 38.25-38.25-17.212-38.25-38.25-38.25-38.25 17.212-38.25 38.25zm57.375 0c0 11.475-7.65 19.125-19.125 19.125s-19.125-7.65-19.125-19.125S141.525 153 153 153s19.125 7.65 19.125 19.125z"/></svg>