<?xml version="1.0" encoding="iso-8859-1"?>
<!-- Generator: Adobe Illustrator 16.0.0, SVG Export Plug-In . SVG Version: 6.00 Build 0)  -->
<!DOCTYPE svg PUBLIC "-//W3C//DTD SVG 1.1//EN" "http://www.w3.org/Graphics/SVG/1.1/DTD/svg11.dtd">
<svg version="1.1" id="Capa_1" xmlns="http://www.w3.org/2000/svg" xmlns:xlink="http://www.w3.org/1999/xlink" x="0px" y="0px"
	 width="478.125px" height="478.125px" viewBox="0 0 478.125 478.125" style="enable-background:new 0 0 478.125 478.125;"
	 xml:space="preserve">
<g>
	<g>
		<path d="M153,133.875c-21.038,0-38.25,17.212-38.25,38.25s17.212,38.25,38.25,38.25s38.25-17.212,38.25-38.25
			S174.038,133.875,153,133.875z M153,191.25c-11.475,0-19.125-7.65-19.125-19.125S141.525,153,153,153s19.125,7.65,19.125,19.125
			S164.475,191.25,153,191.25z"/>
		<path d="M239.062,0C107.1,0,0,107.1,0,239.062c0,131.963,107.1,239.062,239.062,239.062c131.963,0,239.062-107.1,239.062-239.062
			C478.125,107.1,371.025,0,239.062,0z M95.625,172.125c0-32.513,24.862-57.375,57.375-57.375s57.375,24.862,57.375,57.375
			S185.513,229.5,153,229.5S95.625,204.638,95.625,172.125z M239.062,382.5c-26.775,0-47.812-21.037-47.812-47.812
			s21.038-47.812,47.812-47.812c26.775,0,47.812,21.037,47.812,47.812S265.838,382.5,239.062,382.5z M325.125,229.5
			c-32.513,0-57.375-24.862-57.375-57.375s24.862-57.375,57.375-57.375s57.375,24.862,57.375,57.375S357.638,229.5,325.125,229.5z"
			/>
		<path d="M325.125,133.875c-21.037,0-38.25,17.212-38.25,38.25s17.213,38.25,38.25,38.25s38.25-17.212,38.25-38.25
			S346.162,133.875,325.125,133.875z M325.125,191.25c-11.475,0-19.125-7.65-19.125-19.125S313.65,153,325.125,153
			s19.125,7.65,19.125,19.125S336.6,191.25,325.125,191.25z"/>
	</g>
</g>
<g>
</g>
<g>
</g>
<g>
</g>
<g>
</g>
<g>
</g>
<g>
</g>
<g>
</g>
<g>
</g>
<g>
</g>
<g>
</g>
<g>
</g>
<g>
</g>
<g>
</g>
<g>
</g>
<g>
</g>
</svg>
