<svg xmlns="http://www.w3.org/2000/svg" width="478.125" height="478.125" viewBox="0 0 478.125 478.125"><path d="M239.062 0C107.1 0 0 107.1 0 239.062c0 131.963 107.1 239.062 239.062 239.062 131.963 0 239.062-107.1 239.062-239.062C478.125 107.1 371.025 0 239.062 0zM114.75 114.75h76.5v19.125h-76.5V114.75zm57.375 248.625h-9.562c-13.388 0-22.95-7.65-26.775-19.125h36.337v19.125zm0-38.25h-36.337c3.825-11.475 15.3-19.125 26.775-19.125h9.562v19.125zM153 210.375c-11.475 0-19.125-7.65-19.125-19.125s7.65-19.125 19.125-19.125 19.125 7.65 19.125 19.125-7.65 19.125-19.125 19.125zm76.5 153h-38.25V344.25h38.25v19.125zm0-38.25h-38.25V306h38.25v19.125zm57.375 38.25h-38.25V344.25h38.25v19.125zm0-38.25h-38.25V306h38.25v19.125zm28.687 38.25H306V344.25h36.338c-3.825 11.475-13.388 19.125-26.776 19.125zM306 325.125V306h9.562c13.388 0 22.95 7.65 26.775 19.125H306zm19.125-114.75c-11.475 0-19.125-7.65-19.125-19.125s7.65-19.125 19.125-19.125 19.125 7.65 19.125 19.125-7.65 19.125-19.125 19.125zm38.25-76.5h-76.5V114.75h76.5v19.125z"/></svg>