<svg xmlns="http://www.w3.org/2000/svg" width="478.125" height="478.125" viewBox="0 0 478.125 478.125"><path d="M239.062 0C107.1 0 0 107.1 0 239.062c0 131.963 107.1 239.062 239.062 239.062 131.963 0 239.062-107.1 239.062-239.062C478.125 107.1 371.025 0 239.062 0zM103.275 200.812l-13.387-13.388 53.55-53.55 53.55 53.55-13.388 13.388-40.163-40.163-40.162 40.163zm135.787 162.563C172.125 363.375 153 306 153 306s28.688 19.125 86.062 19.125S325.125 306 325.125 306 306 363.375 239.062 363.375zM374.85 200.812l-40.162-40.163-40.162 40.163-13.388-13.388 53.55-53.55 53.55 53.55-13.388 13.388z"/></svg>