<svg xmlns="http://www.w3.org/2000/svg" width="478.125" height="478.125" viewBox="0 0 478.125 478.125"><path d="M239.062 0C107.1 0 0 107.1 0 239.062c0 131.963 107.1 239.062 239.062 239.062 131.963 0 239.062-107.1 239.062-239.062C478.125 107.1 371.025 0 239.062 0zM153 153c11.475 0 19.125 7.65 19.125 19.125S164.475 191.25 153 191.25s-19.125-7.65-19.125-19.125S141.525 153 153 153zm86.062 229.5c-57.375 0-86.062-57.375-105.188-57.375 28.688 0 47.812-28.688 66.938-28.688s19.125 9.562 38.25 19.125c19.125-9.562 19.125-19.125 38.25-19.125s38.25 28.688 66.938 28.688c-19.125 0-49.725 57.375-105.188 57.375zm86.063-191.25c-11.475 0-19.125-7.65-19.125-19.125S313.65 153 325.125 153s19.125 7.65 19.125 19.125-7.65 19.125-19.125 19.125z"/></svg>