<svg xmlns="http://www.w3.org/2000/svg" width="478.125" height="478.125" viewBox="0 0 478.125 478.125"><path d="M239.062 0C107.1 0 0 107.1 0 239.062c0 131.963 107.1 239.062 239.062 239.062 131.963 0 239.062-107.1 239.062-239.062C478.125 107.1 371.025 0 239.062 0zm-95.624 133.875l53.55 53.55-13.388 13.387-40.163-40.163-40.163 40.163-13.387-13.388 53.551-53.549zm95.624 267.75c-124.312 0-143.438-114.75-143.438-114.75H382.5s-19.125 114.75-143.438 114.75zM374.85 200.812l-40.162-40.163-40.162 40.163-13.388-13.388 53.55-53.55 53.55 53.55-13.388 13.388z"/></svg>