<svg xmlns="http://www.w3.org/2000/svg" width="478.125" height="478.125" viewBox="0 0 478.125 478.125"><path d="M153 210.375c21.038 0 38.25-17.212 38.25-38.25s-17.212-38.25-38.25-38.25-38.25 17.212-38.25 38.25 17.212 38.25 38.25 38.25zM153 153c11.475 0 19.125 7.65 19.125 19.125S164.475 191.25 153 191.25s-19.125-7.65-19.125-19.125S141.525 153 153 153z"/><path d="M239.062 0C107.1 0 0 107.1 0 239.062c0 131.963 107.1 239.062 239.062 239.062 131.963 0 239.062-107.1 239.062-239.062C478.125 107.1 371.025 0 239.062 0zm86.063 153c11.475 0 19.125 7.65 19.125 19.125s-7.65 19.125-19.125 19.125S306 183.6 306 172.125 313.65 153 325.125 153zM153 114.75c32.513 0 57.375 24.862 57.375 57.375S185.513 229.5 153 229.5s-57.375-24.862-57.375-57.375S120.487 114.75 153 114.75zm149.175 246.713c-36.337-1.913-55.462-24.863-63.112-40.163-7.65 15.3-26.775 38.25-63.112 40.163-51.638 1.912-99.45-45.9-99.45-63.113 19.125 21.038 53.55 22.95 70.763 15.301 26.775-13.388 22.95-38.25 42.075-55.463 11.475-9.562 26.775-9.562 40.163 0 1.912 1.912 5.737 3.825 7.65 7.65 1.912-1.913 3.824-5.738 7.649-7.65 13.388-9.562 30.601-9.562 40.163 0 19.125 17.213 15.3 42.075 42.074 55.463 19.125 9.562 51.638 7.649 70.763-15.301 3.824 17.212-43.989 65.025-95.626 63.113z"/></svg>