<svg xmlns="http://www.w3.org/2000/svg" width="478.125" height="478.125" viewBox="0 0 478.125 478.125"><path d="M239.062 0C107.1 0 0 107.1 0 239.062c0 131.963 107.1 239.062 239.062 239.062 131.963 0 239.062-107.1 239.062-239.062C478.125 107.1 371.025 0 239.062 0zM133.875 172.125c0-11.475 7.65-19.125 19.125-19.125s19.125 7.65 19.125 19.125-7.65 19.125-19.125 19.125-19.125-7.65-19.125-19.125zM239.062 382.5C191.25 382.5 153 361.463 153 334.688s38.25-47.812 86.062-47.812 86.062 21.037 86.062 47.812-38.249 47.812-86.062 47.812zm86.063-191.25c-11.475 0-19.125-7.65-19.125-19.125S313.65 153 325.125 153s19.125 7.65 19.125 19.125-7.65 19.125-19.125 19.125z"/></svg>