<svg xmlns="http://www.w3.org/2000/svg" width="478.125" height="478.125" viewBox="0 0 478.125 478.125"><path d="M239.062 0C107.1 0 0 107.1 0 239.062c0 131.963 107.1 239.062 239.062 239.062 131.963 0 239.062-107.1 239.062-239.062C478.125 107.1 371.025 0 239.062 0zM116.663 175.95l63.112-42.075 11.475 15.3-65.025 42.075-9.562-15.3zM344.25 363.375s-38.25-38.25-105.188-38.25-105.188 38.25-105.188 38.25V344.25S172.124 306 239.062 306s105.188 38.25 105.188 38.25v19.125zm7.65-172.125l-63.113-42.075 11.476-15.3 63.112 42.075-11.475 15.3z"/></svg>