<svg xmlns="http://www.w3.org/2000/svg" width="478.125" height="478.125" viewBox="0 0 478.125 478.125"><path d="M239.062 0C107.1 0 0 107.1 0 239.062c0 131.963 107.1 239.062 239.062 239.062 131.963 0 239.062-107.1 239.062-239.062C478.125 107.1 371.025 0 239.062 0zM126.225 133.875l63.112 42.075-9.562 15.3-63.112-42.075 9.562-15.3zM239.062 344.25c-57.375 0-86.062 19.125-86.062 19.125S172.125 306 239.062 306s86.062 57.375 86.062 57.375-28.686-19.125-86.062-19.125zm59.288-153l-11.475-15.3 63.112-42.075 11.476 15.3-63.113 42.075z"/></svg>