<svg xmlns="http://www.w3.org/2000/svg" width="478.125" height="478.125" viewBox="0 0 478.125 478.125"><path d="M239.062 0C107.1 0 0 107.1 0 239.062c0 131.963 107.1 239.062 239.062 239.062 131.963 0 239.062-107.1 239.062-239.062C478.125 107.1 371.025 0 239.062 0zM89.888 187.425l53.55-53.55 53.55 53.55-13.388 13.387-40.163-40.163-40.163 40.163-13.386-13.387zm254.362 137.7s-38.25 38.25-105.188 38.25-105.188-38.25-105.188-38.25V306s38.25 38.25 105.188 38.25S344.25 306 344.25 306v19.125zm30.6-124.313l-40.162-40.163-40.162 40.163-13.388-13.388 53.55-53.55 53.55 53.55-13.388 13.388z"/></svg>