<svg xmlns="http://www.w3.org/2000/svg" width="478.125" height="478.125" viewBox="0 0 478.125 478.125"><path d="M239.062 0C107.1 0 0 107.1 0 239.062c0 131.963 107.1 239.062 239.062 239.062 131.963 0 239.062-107.1 239.062-239.062C478.125 107.1 371.025 0 239.062 0zM133.875 153h57.375c11.475 0 19.125 7.65 19.125 19.125s-7.65 19.125-19.125 19.125-19.125-7.65-19.125-19.125h-38.25V153zm191.25 172.125c0 19.125-19.125 38.25-38.25 38.25H153V344.25h124.313c15.3 0 28.688-13.388 28.688-28.688V306h19.125l-.001 19.125zm0-133.875c-11.475 0-19.125-7.65-19.125-19.125h-38.25V153h57.375c11.475 0 19.125 7.65 19.125 19.125s-7.65 19.125-19.125 19.125z"/></svg>