<svg xmlns="http://www.w3.org/2000/svg" width="478.125" height="478.125" viewBox="0 0 478.125 478.125"><path d="M239.062 0C107.1 0 0 107.1 0 239.062c0 131.963 107.1 239.062 239.062 239.062 131.963 0 239.062-107.1 239.062-239.062C478.125 107.1 371.025 0 239.062 0zM344.25 325.125s-38.25 38.25-105.188 38.25-105.188-38.25-105.188-38.25V306s38.25 38.25 105.188 38.25S344.25 306 344.25 306v19.125zm91.8-181.687c-9.562 3.825-13.388 11.475-13.388 11.475s-1.912 7.65-9.562 36.337c-7.649 28.688-24.862 32.513-24.862 32.513s-22.95 5.737-47.812 5.737-40.162-1.913-57.375-7.65c-17.212-7.65-22.95-28.688-22.95-28.688s-7.649-17.212-13.387-34.425c0-1.912-3.825-3.825-5.738-5.737-1.912 1.913-5.737 1.913-5.737 5.737-5.737 17.213-13.387 34.425-13.387 34.425S214.2 214.2 198.9 221.85c-17.212 7.65-32.512 7.65-57.375 7.65-24.862 0-47.812-5.737-47.812-5.737s-21.038-3.825-28.688-32.513-9.562-36.337-9.562-36.337-3.825-7.65-13.387-11.475c-3.825 0-3.825-22.95 1.912-24.862 43.988-7.65 130.05-7.65 191.25 7.65h7.65c61.2-15.3 147.263-15.3 191.25-7.65 5.737 1.911 7.649 24.862 1.912 24.862z"/></svg>