<?xml version="1.0" encoding="iso-8859-1"?>
<!-- Generator: Adobe Illustrator 16.0.0, SVG Export Plug-In . SVG Version: 6.00 Build 0)  -->
<!DOCTYPE svg PUBLIC "-//W3C//DTD SVG 1.1//EN" "http://www.w3.org/Graphics/SVG/1.1/DTD/svg11.dtd">
<svg version="1.1" id="Capa_1" xmlns="http://www.w3.org/2000/svg" xmlns:xlink="http://www.w3.org/1999/xlink" x="0px" y="0px"
	 width="478.125px" height="478.125px" viewBox="0 0 478.125 478.125" style="enable-background:new 0 0 478.125 478.125;"
	 xml:space="preserve">
<g>
	<path d="M239.062,0C107.1,0,0,107.1,0,239.062c0,131.963,107.1,239.062,239.062,239.062c131.963,0,239.062-107.1,239.062-239.062
		C478.125,107.1,371.025,0,239.062,0z M344.25,325.125c0,0-38.25,38.25-105.188,38.25s-105.188-38.25-105.188-38.25V306
		c0,0,38.25,38.25,105.188,38.25S344.25,306,344.25,306V325.125z M436.05,143.438c-9.562,3.825-13.388,11.475-13.388,11.475
		s-1.912,7.65-9.562,36.337c-7.649,28.688-24.862,32.513-24.862,32.513s-22.95,5.737-47.812,5.737s-40.162-1.913-57.375-7.65
		c-17.212-7.65-22.95-28.688-22.95-28.688s-7.649-17.212-13.387-34.425c0-1.912-3.825-3.825-5.738-5.737
		c-1.912,1.913-5.737,1.913-5.737,5.737c-5.737,17.213-13.387,34.425-13.387,34.425S214.2,214.2,198.9,221.85
		c-17.212,7.65-32.512,7.65-57.375,7.65c-24.862,0-47.812-5.737-47.812-5.737s-21.038-3.825-28.688-32.513
		s-9.562-36.337-9.562-36.337s-3.825-7.65-13.387-11.475c-3.825,0-3.825-22.95,1.912-24.862c43.988-7.65,130.05-7.65,191.25,7.65
		c1.913,0,1.913,0,3.825,0s1.912,0,3.825,0c61.2-15.3,147.263-15.3,191.25-7.65C439.875,120.487,441.787,143.438,436.05,143.438z"/>
</g>
<g>
</g>
<g>
</g>
<g>
</g>
<g>
</g>
<g>
</g>
<g>
</g>
<g>
</g>
<g>
</g>
<g>
</g>
<g>
</g>
<g>
</g>
<g>
</g>
<g>
</g>
<g>
</g>
<g>
</g>
</svg>
