<svg xmlns="http://www.w3.org/2000/svg" width="478.125" height="478.125" viewBox="0 0 478.125 478.125"><path d="M239.062 0C107.1 0 0 107.1 0 239.062c0 131.963 107.1 239.062 239.062 239.062 131.963 0 239.062-107.1 239.062-239.062C478.125 107.1 371.025 0 239.062 0zM128.138 227.587l40.162-40.163-40.162-40.162 13.387-13.388 53.55 53.55-53.55 53.55-13.387-13.387zM239.062 344.25c-57.375 0-86.062 19.125-86.062 19.125S172.125 306 239.062 306s86.062 57.375 86.062 57.375-28.686-19.125-86.062-19.125zm110.925-116.663L336.6 240.975l-53.55-53.55 53.55-53.55 13.388 13.388-40.162 40.162 40.161 40.162z"/></svg>