<svg xmlns="http://www.w3.org/2000/svg" width="478.125" height="478.125" viewBox="0 0 478.125 478.125"><path d="M239.062 0C107.1 0 0 107.1 0 239.062c0 131.963 107.1 239.062 239.062 239.062 131.963 0 239.062-107.1 239.062-239.062C478.125 107.1 371.025 0 239.062 0zM133.875 172.125h76.5v19.125h-76.5v-19.125zm105.187 191.25C172.125 363.375 153 306 153 306s28.688 19.125 86.062 19.125S325.125 306 325.125 306 306 363.375 239.062 363.375zm86.063-172.125c-11.475 0-19.125-7.65-19.125-19.125S313.65 153 325.125 153s19.125 7.65 19.125 19.125-7.65 19.125-19.125 19.125z"/></svg>